<svg xmlns="http://www.w3.org/2000/svg" width="24" height="24" viewBox="0 0 24 24" fill="none">
  <g clip-path="url(#clip0_5303_10685)">
    <path
      d="M11.5153 1.33154C11.5519 1.23413 11.6174 1.15021 11.703 1.09097C11.7885 1.03174 11.8901 1 11.9942 1C12.0983 1 12.1999 1.03174 12.2854 1.09097C12.371 1.15021 12.4365 1.23413 12.4731 1.33154L15.063 8.67453H22.3773C22.4819 8.67453 22.584 8.70657 22.6698 8.76636C22.7556 8.82615 22.8211 8.9108 22.8573 9.00892C22.8936 9.10703 22.8989 9.2139 22.8725 9.31511C22.8461 9.41633 22.7894 9.50704 22.7099 9.57501L16.5979 14.6423L19.1561 22.327C19.1903 22.43 19.1909 22.5412 19.1578 22.6445C19.1246 22.7479 19.0595 22.838 18.9718 22.9019C18.8841 22.9658 18.7784 23.0001 18.6699 23C18.5613 22.9999 18.4557 22.9652 18.3682 22.9011L11.9932 18.2237L5.61512 22.9011C5.52753 22.964 5.42231 22.9976 5.31449 22.9971C5.20666 22.9966 5.10175 22.9621 5.01472 22.8984C4.92769 22.8347 4.86299 22.7452 4.82987 22.6426C4.79675 22.54 4.79689 22.4295 4.83027 22.327L7.38845 14.6423L1.27543 9.57501C1.19594 9.50704 1.13919 9.41633 1.11283 9.31511C1.08647 9.2139 1.09177 9.10703 1.128 9.00892C1.16424 8.9108 1.22967 8.82615 1.31549 8.76636C1.40132 8.70657 1.5034 8.67453 1.60799 8.67453H8.92336L11.5153 1.33154Z"
      fill="#FFEF5E" />
    <path
      d="M11.9932 18.2237L5.61512 22.9011C5.52753 22.964 5.42231 22.9976 5.31449 22.9971C5.20666 22.9966 5.10175 22.9621 5.01472 22.8984C4.92769 22.8347 4.86299 22.7452 4.82987 22.6426C4.79675 22.54 4.79689 22.4295 4.83027 22.327L7.38845 14.6423L1.27543 9.57501C1.19594 9.50704 1.13919 9.41633 1.11283 9.31511C1.08647 9.2139 1.09177 9.10703 1.128 9.00892C1.16424 8.9108 1.22967 8.82615 1.31549 8.76636C1.40132 8.70657 1.5034 8.67453 1.60799 8.67453H8.92336L11.5143 1.33154C11.5509 1.23413 11.6164 1.15021 11.7019 1.09097C11.7875 1.03174 11.8891 1 11.9932 1V18.2237Z"
      fill="#FFF9BF" />
    <path
      d="M11.5153 1.33154C11.5519 1.23413 11.6174 1.15021 11.703 1.09097C11.7885 1.03174 11.8901 1 11.9942 1C12.0983 1 12.1999 1.03174 12.2854 1.09097C12.371 1.15021 12.4365 1.23413 12.4731 1.33154L15.063 8.67453H22.3773C22.4819 8.67453 22.584 8.70657 22.6698 8.76636C22.7556 8.82615 22.8211 8.9108 22.8573 9.00892C22.8936 9.10703 22.8989 9.2139 22.8725 9.31511C22.8461 9.41633 22.7894 9.50704 22.7099 9.57501L16.5979 14.6423L19.1561 22.327C19.1903 22.43 19.1909 22.5412 19.1578 22.6445C19.1246 22.7479 19.0595 22.838 18.9718 22.9019C18.8841 22.9658 18.7784 23.0001 18.6699 23C18.5613 22.9999 18.4557 22.9652 18.3682 22.9011L11.9932 18.2237L5.61512 22.9011C5.52753 22.964 5.42231 22.9976 5.31449 22.9971C5.20666 22.9966 5.10175 22.9621 5.01472 22.8984C4.92769 22.8347 4.86299 22.7452 4.82987 22.6426C4.79675 22.54 4.79689 22.4295 4.83027 22.327L7.38845 14.6423L1.27543 9.57501C1.19594 9.50704 1.13919 9.41633 1.11283 9.31511C1.08647 9.2139 1.09177 9.10703 1.128 9.00892C1.16424 8.9108 1.22967 8.82615 1.31549 8.76636C1.40132 8.70657 1.5034 8.67453 1.60799 8.67453H8.92336L11.5153 1.33154Z"
      stroke="#191919" stroke-linecap="round" stroke-linejoin="round" />
  </g>
  <defs>
    <clipPath id="clip0_5303_10685">
      <rect width="24" height="24" fill="white" transform="translate(-0.00720215)" />
    </clipPath>
  </defs>
</svg>