<svg xmlns="http://www.w3.org/2000/svg" width="14" height="14" viewBox="0 0 14 14" fill="none">
  <g clip-path="url(#clip0_2606_5335)">
    <path fill-rule="evenodd" clip-rule="evenodd"
      d="M12.375 3.20833V4.26398H13.25C13.6642 4.26398 14 4.59976 14 5.01398C14 5.42819 13.6642 5.76398 13.25 5.76398H12.375V8.23602H13.25C13.6642 8.23602 14 8.57181 14 8.98602C14 9.40024 13.6642 9.73602 13.25 9.73602H12.375V10.7917C12.375 11.6661 11.6661 12.375 10.7917 12.375H9.73608V13.25C9.73608 13.6642 9.4003 14 8.98608 14C8.57187 14 8.23608 13.6642 8.23608 13.25V12.375H5.76392V13.25C5.76392 13.6642 5.42813 14 5.01392 14C4.5997 14 4.26392 13.6642 4.26392 13.25V12.375H3.20833C2.33388 12.375 1.625 11.6661 1.625 10.7917V9.73602H0.75C0.335786 9.73602 0 9.40024 0 8.98602C0 8.57181 0.335786 8.23602 0.75 8.23602H1.625V5.76398H0.75C0.335786 5.76398 0 5.42819 0 5.01398C0 4.59976 0.335786 4.26398 0.75 4.26398H1.625V3.20833C1.625 2.33388 2.33388 1.625 3.20833 1.625H4.26392V0.75C4.26392 0.335786 4.5997 0 5.01392 0C5.42813 0 5.76392 0.335787 5.76392 0.75V1.625H8.23608V0.75C8.23608 0.335786 8.57187 0 8.98608 0C9.4003 0 9.73608 0.335787 9.73608 0.75V1.625H10.7917C11.6661 1.625 12.375 2.33388 12.375 3.20833ZM6.25063 4.60407C6.42316 3.80263 7.55872 3.79684 7.73834 4.5976L7.75857 4.6878C7.94076 5.50004 8.58261 6.11486 9.37871 6.2557C10.2071 6.40224 10.2071 7.59776 9.37871 7.74431C8.58261 7.88514 7.94076 8.49996 7.75857 9.3122L7.73834 9.4024C7.55872 10.2032 6.42316 10.1974 6.25063 9.39593L6.23397 9.31853C6.05848 8.50335 5.4175 7.88407 4.62023 7.74303C3.79326 7.59673 3.79325 6.40327 4.62023 6.25697C5.4175 6.11593 6.05848 5.49665 6.23397 4.68148L6.25063 4.60407Z"
      fill="url(#paint0_linear_2606_5335)" />
  </g>
  <defs>
    <linearGradient id="paint0_linear_2606_5335" x1="13.953" y1="14.003" x2="-2.626" y2="4.677"
      gradientUnits="userSpaceOnUse">
      <stop stop-color="#FF51E3" />
      <stop offset="1" stop-color="#1B4DFF" />
    </linearGradient>
    <clipPath id="clip0_2606_5335">
      <rect width="14" height="14" fill="white" />
    </clipPath>
  </defs>
</svg>