<svg xmlns="http://www.w3.org/2000/svg" width="24" height="24" viewBox="0 0 24 24" fill="none">
  <g clip-path="url(#clip0_5303_11299)">
    <path
      d="M22.563 13.5095C21.9851 15.6855 20.8419 17.6702 19.2495 19.2618C17.6572 20.8536 15.6722 21.9959 13.496 22.573C11.3197 23.1503 9.02949 23.1415 6.85767 22.5481C4.68576 21.9546 2.70947 20.7974 1.12912 19.1937C1.04171 19.1046 0.992798 18.9848 0.992798 18.8599C0.992798 18.735 1.04171 18.6152 1.12912 18.526L2.79838 16.8568C7.41522 21.4727 13.5774 20.7954 17.1831 17.1906C20.7887 13.5859 21.4469 7.42185 16.8492 2.81551V2.80595L18.5185 1.13668C18.6076 1.04927 18.7275 1.00037 18.8524 1.00037C18.9773 1.00037 19.097 1.04927 19.1862 1.13668C20.7916 2.71713 21.9496 4.69454 22.5428 6.86786C23.1359 9.04108 23.143 11.3326 22.563 13.5095Z"
      fill="#78EB7B" />
    <path
      d="M16.8493 2.81641L2.79846 16.8577C7.4153 21.4736 13.5774 20.7963 17.1832 17.1916C20.7888 13.5868 21.447 7.42275 16.8493 2.81641ZM7.81591 17.2793C7.29134 17.2793 6.87162 16.6507 6.87162 15.858C6.87162 15.0653 7.29134 14.4463 7.81591 14.4463C8.34048 14.4463 8.7603 15.0758 8.7603 15.858C8.7603 16.6402 8.34057 17.2793 7.81591 17.2793ZM14.1688 14.1792C13.7969 14.5521 13.0528 14.3985 12.4995 13.8453C11.9463 13.292 11.7937 12.549 12.1657 12.176C12.5378 11.803 13.2818 11.9566 13.835 12.5098C14.3882 13.0631 14.5409 13.8147 14.1688 14.1763V14.1792ZM15.8477 8.78106C15.056 8.78106 14.4264 8.36039 14.4264 7.83676C14.4264 7.31303 15.056 6.89237 15.8477 6.89237C16.6395 6.89237 17.2594 7.3121 17.2594 7.83676C17.2594 8.36142 16.6298 8.77825 15.8477 8.77825V8.78106Z"
      fill="#FF808C" />
    <path
      d="M2.79944 16.8596C3.65633 17.7274 4.64457 18.455 5.7278 19.0154L3.59112 21.1521C2.69283 20.6049 1.86611 19.948 1.13008 19.1966C1.04267 19.1075 0.993774 18.9876 0.993774 18.8627C0.993774 18.7378 1.04267 18.6181 1.13008 18.5289L2.79944 16.8596Z"
      fill="#C9F7CA" />
    <path
      d="M21.1332 3.61009L18.9965 5.74677C18.442 4.66231 17.7174 3.6737 16.8502 2.81841V2.80885L18.5196 1.13949C18.6088 1.05217 18.7285 1.00317 18.8534 1.00317C18.9783 1.00317 19.0981 1.05217 19.1873 1.13949C19.9337 1.88105 20.5871 2.71067 21.1332 3.61009Z"
      fill="#C9F7CA" />
    <path
      d="M16.8497 2.81836L2.79895 16.8595C3.65584 17.7273 4.64407 18.4549 5.72731 19.0153L7.53974 17.2125C7.31394 17.0707 7.132 16.8688 7.01414 16.6297C6.89628 16.3906 6.847 16.1234 6.87201 15.8579C6.87201 15.0757 7.29174 14.4462 7.8164 14.4462C8.34106 14.4462 8.7607 15.0757 8.7607 15.8579C8.76267 15.9026 8.75948 15.9475 8.75114 15.9914L11.9754 12.7673C11.958 12.6607 11.9664 12.5515 11.9996 12.4488C12.0328 12.346 12.09 12.2525 12.1663 12.1762C12.2427 12.0998 12.3362 12.0426 12.4389 12.0095C12.5416 11.9763 12.6509 11.9679 12.7575 11.9852L15.9722 8.77064C15.9313 8.77851 15.8897 8.7817 15.8481 8.78011C15.0564 8.78011 14.4269 8.36047 14.4269 7.83581C14.4269 7.31115 15.0564 6.89142 15.8481 6.89142C16.1121 6.86715 16.3777 6.91681 16.6153 7.03467C16.8528 7.15253 17.0528 7.3342 17.1931 7.55914L18.996 5.74672C18.4414 4.66226 17.7169 3.67365 16.8497 2.81836Z"
      fill="#FFBFC5" />
    <path
      d="M22.563 13.5095C21.9851 15.6855 20.8419 17.6702 19.2495 19.2618C17.6572 20.8536 15.6722 21.9959 13.496 22.573C11.3197 23.1503 9.02949 23.1415 6.85767 22.5481C4.68576 21.9546 2.70947 20.7974 1.12912 19.1937C1.04171 19.1046 0.992798 18.9848 0.992798 18.8599C0.992798 18.735 1.04171 18.6152 1.12912 18.526L2.79838 16.8568C7.41522 21.4727 13.5774 20.7954 17.1831 17.1906C20.7887 13.5859 21.4469 7.42185 16.8492 2.81551V2.80595L18.5185 1.13668C18.6076 1.04927 18.7275 1.00037 18.8524 1.00037C18.9773 1.00037 19.097 1.04927 19.1862 1.13668C20.7916 2.71713 21.9496 4.69454 22.5428 6.86786C23.1359 9.04108 23.143 11.3326 22.563 13.5095Z"
      stroke="#191919" stroke-linecap="round" stroke-linejoin="round" />
    <path
      d="M16.8493 2.81641L2.79846 16.8577C7.4153 21.4736 13.5774 20.7963 17.1832 17.1916C20.7888 13.5868 21.447 7.42275 16.8493 2.81641ZM7.81591 17.2793C7.29134 17.2793 6.87162 16.6507 6.87162 15.858C6.87162 15.0653 7.29134 14.4463 7.81591 14.4463C8.34048 14.4463 8.7603 15.0758 8.7603 15.858C8.7603 16.6402 8.34057 17.2793 7.81591 17.2793ZM14.1688 14.1792C13.7969 14.5521 13.0528 14.3985 12.4995 13.8453C11.9463 13.292 11.7937 12.549 12.1657 12.176C12.5378 11.803 13.2818 11.9566 13.835 12.5098C14.3882 13.0631 14.5409 13.8147 14.1688 14.1763V14.1792ZM15.8477 8.78106C15.056 8.78106 14.4264 8.36039 14.4264 7.83676C14.4264 7.31303 15.056 6.89237 15.8477 6.89237C16.6395 6.89237 17.2594 7.3121 17.2594 7.83676C17.2594 8.36142 16.6298 8.77825 15.8477 8.77825V8.78106Z"
      stroke="#191919" stroke-linecap="round" stroke-linejoin="round" />
    <path
      d="M14.1684 14.1764C13.7965 14.5494 13.0524 14.3958 12.4991 13.8426C11.9459 13.2892 11.7933 12.5462 12.1653 12.1732C12.5374 11.8002 13.2814 11.9539 13.8346 12.5071C14.3878 13.0604 14.5404 13.8148 14.1684 14.1764Z"
      fill="#808080" stroke="#191919" stroke-linecap="round" stroke-linejoin="round" />
    <path
      d="M17.2595 7.83578C17.2595 8.3595 16.6299 8.78017 15.8478 8.78017C15.0656 8.78017 14.4264 8.3595 14.4264 7.83578C14.4264 7.31215 15.056 6.89148 15.8478 6.89148C16.6395 6.89148 17.2595 7.30924 17.2595 7.83578Z"
      fill="#808080" stroke="#191919" stroke-linecap="round" stroke-linejoin="round" />
    <path
      d="M8.7599 15.8552C8.7599 16.6479 8.34018 17.2766 7.81551 17.2766C7.29085 17.2766 6.87122 16.6479 6.87122 15.8552C6.87122 15.0625 7.29095 14.4435 7.81551 14.4435C8.34008 14.4435 8.7599 15.0731 8.7599 15.8552Z"
      fill="#808080" stroke="#191919" stroke-linecap="round" stroke-linejoin="round" />
  </g>
  <defs>
    <clipPath id="clip0_5303_11299">
      <rect width="24" height="24" fill="white" transform="translate(-0.00720215)" />
    </clipPath>
  </defs>
</svg>