<svg xmlns="http://www.w3.org/2000/svg" width="14" height="14" viewBox="0 0 14 14" fill="none">
  <g clip-path="url(#clip0_2606_5566)">
    <path fill-rule="evenodd" clip-rule="evenodd"
      d="M14 7C14 3.13401 10.866 0 7 0C3.13401 0 0 3.13401 0 7C0 10.866 3.13401 14 7 14C10.866 14 14 10.866 14 7ZM5.75 5.25C5.75 4.69772 5.30228 4.25 4.75 4.25C4.19772 4.25 3.75 4.69772 3.75 5.25C3.75 5.80229 4.19772 6.25 4.75 6.25C5.30228 6.25 5.75 5.80229 5.75 5.25ZM3.15769 7.67243C3.25266 7.56291 3.39049 7.5 3.53545 7.5H10.4646C10.6095 7.5 10.7473 7.56291 10.8423 7.67243C10.9373 7.78195 10.98 7.9273 10.9595 8.0708C10.6822 10.0097 9.01556 11.5 7.00001 11.5C4.98445 11.5 3.31783 10.0097 3.04049 8.0708C3.01996 7.9273 3.06272 7.78195 3.15769 7.67243ZM9.25 4.25C9.80229 4.25 10.25 4.69772 10.25 5.25C10.25 5.80229 9.80229 6.25 9.25 6.25C8.69772 6.25 8.25 5.80229 8.25 5.25C8.25 4.69772 8.69772 4.25 9.25 4.25Z"
      fill="url(#paint0_linear_2606_5566)" />
  </g>
  <defs>
    <linearGradient id="paint0_linear_2606_5566" x1="0.538" y1="1.131" x2="16.494" y2="10.125"
      gradientUnits="userSpaceOnUse">
      <stop stop-color="#00D078" />
      <stop offset="1" stop-color="#007DF0" />
    </linearGradient>
    <clipPath id="clip0_2606_5566">
      <rect width="14" height="14" fill="white" />
    </clipPath>
  </defs>
</svg>