<svg xmlns="http://www.w3.org/2000/svg" width="14" height="14" viewBox="0 0 14 14" fill="none">
  <g clip-path="url(#clip0_2606_4942)">
    <path fill-rule="evenodd" clip-rule="evenodd"
      d="M14 7C14 10.866 10.866 14 7 14C3.13401 14 0 10.866 0 7C0 3.13401 3.13401 0 7 0C10.866 0 14 3.13401 14 7ZM7.62497 3.14587C7.62497 2.8007 7.34515 2.52087 6.99997 2.52087C6.65479 2.52087 6.37497 2.8007 6.37497 3.14587V3.80656C5.42369 3.8376 4.66205 4.61855 4.66205 5.57738C4.66205 6.41 5.24181 7.1303 6.0552 7.30823L7.56922 7.63942C7.87187 7.70562 8.08796 7.97402 8.08796 8.28427C8.08796 8.64892 7.79229 8.94446 7.42824 8.94446H6.57176C6.2855 8.94446 6.04029 8.76178 5.94943 8.5047C5.8344 8.17925 5.47732 8.00868 5.15187 8.12371C4.82642 8.23874 4.65585 8.59581 4.77088 8.92126C5.01184 9.603 5.62932 10.1081 6.37497 10.1844V10.8542C6.37497 11.1994 6.65479 11.4792 6.99997 11.4792C7.34515 11.4792 7.62497 11.1994 7.62497 10.8542V10.1844C8.58749 10.0859 9.33796 9.27229 9.33796 8.28427C9.33796 7.38704 8.71328 6.61012 7.83634 6.41829L6.32232 6.0871C6.08278 6.0347 5.91205 5.82258 5.91205 5.57738C5.91205 5.28921 6.14566 5.0556 6.43383 5.0556H7.42824C7.62357 5.0556 7.79843 5.13969 7.92012 5.27566C7.97729 5.33954 8.02185 5.41407 8.05058 5.49535C8.16561 5.8208 8.52268 5.99138 8.84813 5.87635C9.17358 5.76132 9.34416 5.40424 9.22913 5.07879C9.14506 4.84093 9.01555 4.62527 8.85154 4.44201C8.5437 4.09807 8.11118 3.86551 7.62497 3.81563V3.14587Z"
      fill="url(#paint0_linear_2606_4942)" />
  </g>
  <defs>
    <linearGradient id="paint0_linear_2606_4942" x1="0.538" y1="1.131" x2="16.494" y2="10.125"
      gradientUnits="userSpaceOnUse">
      <stop stop-color="#F7FF00" />
      <stop offset="0.495" stop-color="#B1F019" />
      <stop offset="1" stop-color="#00CA5B" />
    </linearGradient>
    <clipPath id="clip0_2606_4942">
      <rect width="14" height="14" fill="white" />
    </clipPath>
  </defs>
</svg>