<svg xmlns="http://www.w3.org/2000/svg" width="14" height="14" viewBox="0 0 14 14" fill="none">
  <path fill-rule="evenodd" clip-rule="evenodd"
    d="M5.05667 0L8.94333 2.18749e-05H8.94801C9.15153 0.00192667 9.34802 0.0625643 9.51724 0.171663C9.68603 0.280485 9.82028 0.432559 9.91068 0.608384C10.001 0.784047 10.0458 0.979747 10.043 1.17617C10.0402 1.37259 9.98993 1.56701 9.89443 1.74007C9.88517 1.75685 9.87496 1.77308 9.86384 1.78868L9.10268 2.85664C10.2935 3.57335 11.2306 4.41271 11.8883 5.4276C12.6363 6.58176 13 7.92776 13 9.50617C13 11.0465 12.3475 12.2025 11.2319 12.9516C10.1437 13.6823 8.65659 14 7 14C5.34334 14 3.85672 13.6823 2.76888 12.9546C1.65372 12.2086 1 11.0579 1 9.52614C1 7.94767 1.36373 6.6018 2.11151 5.44655C2.76963 4.42982 3.70762 3.58788 4.8996 2.8669L4.13527 1.78742C4.12449 1.7722 4.11458 1.75639 4.10557 1.74007C4.01007 1.56702 3.95976 1.37259 3.95699 1.17617C3.95421 0.979744 3.99901 0.784045 4.08933 0.608384C4.17972 0.43256 4.31397 0.280486 4.48276 0.171663C4.65198 0.0625643 4.84847 0.00194857 5.05199 4.37796e-05L5.05667 0ZM7.625 5C7.625 4.65482 7.34518 4.375 7 4.375C6.65482 4.375 6.375 4.65482 6.375 5V5.46512C5.56493 5.53958 4.93054 6.2209 4.93054 7.0504C4.93054 7.79855 5.45148 8.44577 6.18235 8.60565L7.45905 8.88492C7.66925 8.9309 7.81945 9.11738 7.81945 9.33299C7.81945 9.58643 7.61394 9.79173 7.36111 9.79173H6.63888C6.44029 9.79173 6.26968 9.66508 6.20646 9.48622C6.09143 9.16078 5.73435 8.9902 5.40891 9.10523C5.08346 9.22026 4.91288 9.57734 5.02791 9.90278C5.2339 10.4856 5.74753 10.9242 6.375 11.0215V11.5001C6.375 11.8453 6.65482 12.1251 7 12.1251C7.34518 12.1251 7.625 11.8453 7.625 11.5001V11.0215C8.4434 10.8945 9.06945 10.1865 9.06945 9.33299C9.06945 8.5304 8.51066 7.8354 7.72617 7.6638L6.44948 7.38452C6.29246 7.35017 6.18054 7.21113 6.18054 7.0504C6.18054 6.8615 6.33367 6.70837 6.52257 6.70837H7.36111C7.49679 6.70837 7.61807 6.76654 7.70288 6.86131C7.74272 6.90582 7.77364 6.95761 7.79353 7.01388C7.90856 7.33933 8.26563 7.5099 8.59108 7.39487C8.91653 7.27985 9.08711 6.92277 8.97208 6.59732C8.89685 6.38447 8.78098 6.19155 8.6343 6.02767C8.3777 5.74097 8.02408 5.5407 7.625 5.47868V5Z"
    fill="url(#paint0_linear_2606_4915)" />
  <defs>
    <linearGradient id="paint0_linear_2606_4915" x1="14.04" y1="16.965" x2="-3.727" y2="6.148"
      gradientUnits="userSpaceOnUse">
      <stop stop-color="#FFD600" />
      <stop offset="1" stop-color="#FF007A" />
    </linearGradient>
  </defs>
</svg>