<svg xmlns="http://www.w3.org/2000/svg" width="14" height="14" viewBox="0 0 14 14" fill="none">
  <g clip-path="url(#clip0_2606_4717)">
    <path fill-rule="evenodd" clip-rule="evenodd"
      d="M7.56036 0.100301C7.20164 -0.106806 6.74295 0.0161007 6.53584 0.37482C6.32874 0.73354 6.45164 1.19223 6.81036 1.39934C8.09461 2.1408 8.74598 3.43659 8.76506 4.84482C7.0299 2.61436 4.02096 1.49656 1.30487 3.0647C0.946151 3.2718 0.823245 3.7305 1.03035 4.08922C1.23746 4.44794 1.69615 4.57084 2.05487 4.36374C3.34093 3.62123 4.79108 3.7063 6.02131 4.39658C3.22888 4.79058 0.744385 6.83235 0.744385 9.96448C0.744385 10.3787 1.08017 10.7145 1.49438 10.7145C1.9086 10.7145 2.24438 10.3787 2.24438 9.96448C2.24438 8.49004 3.04196 7.28139 4.25066 6.55892C3.20275 9.1717 3.73151 12.3362 6.43946 13.8996C6.79817 14.1067 7.25687 13.9838 7.46397 13.6251C7.67108 13.2664 7.54817 12.8077 7.18946 12.6006C5.91254 11.8634 5.26461 10.5683 5.24329 9.16028C6.98205 11.3743 9.98703 12.4987 12.695 10.9352C13.0538 10.7281 13.1767 10.2694 12.9696 9.91069C12.7624 9.55197 12.3038 9.42907 11.945 9.63618C10.6698 10.3724 9.22647 10.2872 7.99751 9.6042C10.791 9.21194 13.2555 7.1666 13.2555 4.03546C13.2555 3.62125 12.9197 3.28546 12.5055 3.28546C12.0912 3.28546 11.7555 3.62125 11.7555 4.03546C11.7555 5.51843 10.9589 6.73046 9.74883 7.45109C10.8129 4.83317 10.2765 1.66844 7.56036 0.100301ZM5.99994 7C5.99994 6.44772 6.44765 6 6.99994 6C7.55222 6 7.99994 6.44772 7.99994 7C7.99994 7.55229 7.55222 8 6.99994 8C6.44765 8 5.99994 7.55229 5.99994 7Z"
      fill="url(#paint0_linear_2606_4717)" />
  </g>
  <defs>
    <linearGradient id="paint0_linear_2606_4717" x1="14.34" y1="16.966" x2="-3.759" y2="5.477"
      gradientUnits="userSpaceOnUse">
      <stop stop-color="#FFD600" />
      <stop offset="1" stop-color="#FF007A" />
    </linearGradient>
    <clipPath id="clip0_2606_4717">
      <rect width="14" height="14" fill="white" />
    </clipPath>
  </defs>
</svg>