<svg xmlns="http://www.w3.org/2000/svg" width="14" height="14" viewBox="0 0 14 14" fill="none">
  <path fill-rule="evenodd" clip-rule="evenodd"
    d="M2.5 0C2.10218 0 1.72064 0.158035 1.43934 0.43934C1.15804 0.720644 1 1.10218 1 1.5V12.5C1 12.8978 1.15804 13.2794 1.43934 13.5607C1.72064 13.842 2.10217 14 2.5 14H11.5C11.8978 14 12.2794 13.842 12.5607 13.5607C12.842 13.2794 13 12.8978 13 12.5V4.5C13 4.36739 12.9473 4.24021 12.8536 4.14645L8.85355 0.146447C8.75979 0.0526784 8.63261 0 8.5 0H2.5ZM6.93359 6.375C6.93359 6.02982 7.21342 5.75 7.55859 5.75H10.0586C10.4038 5.75 10.6836 6.02982 10.6836 6.375C10.6836 6.72018 10.4038 7 10.0586 7H7.55859C7.21342 7 6.93359 6.72018 6.93359 6.375ZM7.55859 9.46875C7.21342 9.46875 6.93359 9.74857 6.93359 10.0938C6.93359 10.4389 7.21342 10.7188 7.55859 10.7188H10.0586C10.4038 10.7188 10.6836 10.4389 10.6836 10.0938C10.6836 9.74857 10.4038 9.46875 10.0586 9.46875H7.55859ZM6.28905 8.41134C6.56994 8.61197 6.635 9.00231 6.43436 9.2832L5.03788 11.2383C4.9311 11.3878 4.76394 11.4827 4.58085 11.4979C4.39775 11.513 4.21726 11.4469 4.08736 11.3169L3.24946 10.4791C3.00539 10.235 3.00539 9.83924 3.24946 9.59517C3.49354 9.35109 3.88927 9.35109 4.13335 9.59517L4.44954 9.91136L5.4172 8.55665C5.61783 8.27577 6.00817 8.21071 6.28905 8.41134ZM6.43436 5.50195C6.635 5.22106 6.56994 4.83072 6.28905 4.63009C6.00817 4.42946 5.61783 4.49451 5.4172 4.7754L4.44954 6.13011L4.13335 5.81392C3.88927 5.56984 3.49354 5.56984 3.24946 5.81392C3.00539 6.058 3.00539 6.45372 3.24946 6.6978L4.08736 7.53569C4.21726 7.6656 4.39775 7.73177 4.58085 7.71662C4.76394 7.70147 4.9311 7.60652 5.03788 7.45702L6.43436 5.50195Z"
    fill="url(#paint0_linear_2606_5263)" />
  <defs>
    <linearGradient id="paint0_linear_2606_5263" x1="2.962" y1="2.692" x2="13.298" y2="7.601"
      gradientUnits="userSpaceOnUse">
      <stop stop-color="#FFD600" />
      <stop offset="1" stop-color="#00D078" />
    </linearGradient>
  </defs>
</svg>