<svg xmlns="http://www.w3.org/2000/svg" width="25" height="24" viewBox="0 0 25 24" fill="none">
  <g clip-path="url(#clip0_5303_8004)">
    <path
      d="M19.0984 16.9749C19.8573 16.9727 20.5845 16.6702 21.1212 16.1335C21.6578 15.5969 21.9603 14.8697 21.9626 14.1107C21.9603 13.3518 21.6578 12.6246 21.1212 12.0879C20.5845 11.5513 19.8573 11.2488 19.0984 11.2465H16.1291C17.188 11.2465 18.4091 11.2541 19.0984 10.2918C21.9292 6.33632 17.8782 2.95368 15.6871 1.386C15.6172 1.33583 15.535 1.3055 15.4492 1.29822C15.3635 1.29095 15.2773 1.30699 15.1999 1.34466C15.1226 1.38232 15.0568 1.44021 15.0096 1.5122C14.9625 1.58418 14.9355 1.66759 14.9319 1.75358C14.8736 2.7723 14.4274 3.73005 13.6851 4.43014C12.9428 5.13023 11.9606 5.51953 10.9401 5.51811H9.67702C9.0001 5.50527 8.33932 5.72542 7.80537 6.14171C7.27142 6.55798 6.89674 7.1451 6.74406 7.80471C6.65993 8.22106 6.66916 8.65088 6.77111 9.06323C6.87306 9.47559 7.06518 9.8602 7.33363 10.1894C7.60209 10.5185 7.94021 10.7841 8.32362 10.967C8.70704 11.1497 9.12623 11.2453 9.55099 11.2465H6.68678C5.92784 11.2488 5.20063 11.5513 4.66398 12.0879C4.12733 12.6246 3.82483 13.3518 3.82257 14.1107C3.82483 14.8697 4.12733 15.5969 4.66398 16.1335C5.20063 16.6702 5.92784 16.9727 6.68678 16.9749H4.7773C4.01836 16.9772 3.29116 17.2797 2.7545 17.8164C2.21785 18.353 1.91536 19.0802 1.91309 19.8392C1.91536 20.5982 2.21785 21.3253 2.7545 21.862C3.29116 22.3986 4.01836 22.7012 4.7773 22.7034H21.0079C21.7668 22.7012 22.494 22.3986 23.0307 21.862C23.5673 21.3253 23.8698 20.5982 23.8721 19.8392C23.8698 19.0802 23.5673 18.353 23.0307 17.8164C22.494 17.2797 21.7668 16.9772 21.0079 16.9749H19.0984Z"
      fill="#E3BFB3" />
    <path
      d="M4.77745 22.7034H21.008C21.7174 22.6998 22.4002 22.4331 22.9243 21.9549C23.4482 21.4768 23.7762 20.8212 23.8445 20.1151H1.94092C2.00925 20.8212 2.33718 21.4768 2.86121 21.9549C3.38524 22.4331 4.06806 22.6998 4.77745 22.7034Z"
      fill="#C77F67" />
    <path
      d="M6.68693 16.9749H19.0985C19.7924 16.9716 20.4616 16.7164 20.9816 16.2569C21.5015 15.7974 21.8369 15.1647 21.9255 14.4764H3.86377C3.95227 15.164 4.28716 15.7961 4.80632 16.2556C5.32548 16.715 5.99367 16.9706 6.68693 16.9749Z"
      fill="#C77F67" />
    <path
      d="M9.5506 11.2465H16.1288C17.1876 11.2465 18.4087 11.2541 19.098 10.2918C21.207 7.34452 19.4952 4.71614 17.579 2.91837C18.0258 7.96702 14.4026 9.5643 6.76562 9.00387C6.90662 9.63815 7.25909 10.2057 7.76516 10.6131C8.27123 11.0207 8.90084 11.244 9.5506 11.2465Z"
      fill="#C77F67" />
    <path
      d="M19.1394 16.975C19.8983 16.9727 20.6255 16.6703 21.1622 16.1336C21.6989 15.597 22.0013 14.8697 22.0036 14.1108C22.0013 13.3519 21.6989 12.6247 21.1622 12.088C20.6255 11.5514 19.8983 11.2488 19.1394 11.2466H16.1702C17.229 11.2466 18.4501 11.2542 19.1394 10.2919C21.9702 6.33638 17.9192 2.95375 15.7272 1.38606C15.6573 1.33615 15.5752 1.30603 15.4895 1.29889C15.4039 1.29175 15.318 1.30784 15.2407 1.34548C15.1635 1.38312 15.0978 1.44091 15.0507 1.51274C15.0036 1.58457 14.9767 1.6678 14.9729 1.75364C14.9146 2.77236 14.4684 3.73011 13.7261 4.4302C12.9838 5.13029 12.0016 5.51959 10.9812 5.51816H9.71803C9.04111 5.50533 8.38032 5.72548 7.84638 6.14176C7.31243 6.55804 6.93774 7.14516 6.78507 7.80476C6.70076 8.22113 6.70987 8.65103 6.81174 9.06345C6.91362 9.47588 7.10572 9.86057 7.37421 10.1898C7.6427 10.519 7.98089 10.7845 8.3644 10.9673C8.74791 11.1501 9.16718 11.2455 9.592 11.2466H6.72779C5.96885 11.2488 5.24164 11.5514 4.70498 12.088C4.16833 12.6247 3.86583 13.3519 3.86357 14.1108C3.86583 14.8697 4.16833 15.597 4.70498 16.1336C5.24164 16.6703 5.96885 16.9727 6.72779 16.975H4.81831C4.05937 16.9772 3.33216 17.2798 2.79551 17.8164C2.25885 18.3531 1.95636 19.0803 1.9541 19.8393C1.95636 20.5982 2.25885 21.3254 2.79551 21.8621C3.33216 22.3987 4.05937 22.7012 4.81831 22.7035H21.0489C21.8078 22.7012 22.535 22.3987 23.0717 21.8621C23.6083 21.3254 23.9108 20.5982 23.9131 19.8393C23.9108 19.0803 23.6083 18.3531 23.0717 17.8164C22.535 17.2798 21.8078 16.9772 21.0489 16.975H19.1394Z"
      stroke="#191919" stroke-linecap="round" stroke-linejoin="round" />
    <path d="M10.5465 11.2464H9.5918" stroke="#191919" stroke-linecap="round"
      stroke-linejoin="round" />
    <path d="M15.3203 11.2464H16.17" stroke="#191919" stroke-linecap="round" stroke-linejoin="round" />
    <path d="M8.16014 16.9748H6.72803" stroke="#191919" stroke-linecap="round"
      stroke-linejoin="round" />
    <path d="M18.1846 16.9748H19.1393" stroke="#191919" stroke-linecap="round"
      stroke-linejoin="round" />
  </g>
  <defs>
    <clipPath id="clip0_5303_8004">
      <rect width="24" height="24" fill="white" transform="translate(0.913086)" />
    </clipPath>
  </defs>
</svg>