<svg xmlns="http://www.w3.org/2000/svg" xmlns:xlink="http://www.w3.org/1999/xlink" version="1.1"
	width="256" height="256" viewBox="0 0 256 256" xml:space="preserve">

<defs>
</defs>
<g style="stroke: none; stroke-width: 0; stroke-dasharray: none; stroke-linecap: butt; stroke-linejoin: miter; stroke-miterlimit: 10; fill: none; fill-rule: nonzero; opacity: 1;" transform="translate(1.4065934065934016 1.4065934065934016) scale(2.81 2.81)" >
	<path d="M 79.126 89 H 10.874 c -1.911 0 -3.461 -1.549 -3.461 -3.461 V 17.286 c 0 -1.911 1.549 -3.461 3.461 -3.461 h 68.253 c 1.911 0 3.461 1.549 3.461 3.461 v 68.253 C 82.587 87.451 81.038 89 79.126 89 z" style="stroke: none; stroke-width: 1; stroke-dasharray: none; stroke-linecap: butt; stroke-linejoin: miter; stroke-miterlimit: 10; fill: rgb(255,202,66); fill-rule: nonzero; opacity: 1;" transform=" matrix(1 0 0 1 0 0) " stroke-linecap="round" />
	<path d="M 52.312 10.7 c 2.148 -2.397 3.576 -5.831 3.812 -9.7 H 33.876 c 0.237 3.869 1.665 7.303 3.812 9.7 c 1.305 1.457 1.556 4.003 0.492 5.754 c -1.015 1.671 -1.667 3.724 -1.805 5.965 h 17.248 c -0.137 -2.241 -0.789 -4.294 -1.805 -5.965 C 50.755 14.702 51.007 12.157 52.312 10.7 z" style="stroke: none; stroke-width: 1; stroke-dasharray: none; stroke-linecap: butt; stroke-linejoin: miter; stroke-miterlimit: 10; fill: rgb(234,70,61); fill-rule: nonzero; opacity: 1;" transform=" matrix(1 0 0 1 0 0) " stroke-linecap="round" />
	<path d="M 53.624 23.418 H 36.376 c -0.276 0 -0.54 -0.114 -0.729 -0.315 c -0.189 -0.201 -0.287 -0.471 -0.27 -0.746 c 0.143 -2.34 0.817 -4.561 1.948 -6.423 c 0.827 -1.36 0.655 -3.41 -0.382 -4.568 c -2.378 -2.653 -3.822 -6.313 -4.066 -10.306 c -0.017 -0.275 0.081 -0.545 0.27 -0.746 C 33.336 0.114 33.6 0 33.876 0 h 22.248 c 0.275 0 0.539 0.114 0.729 0.315 c 0.188 0.201 0.286 0.471 0.27 0.746 c -0.244 3.992 -1.688 7.651 -4.065 10.306 c -1.038 1.158 -1.209 3.207 -0.383 4.567 c 1.132 1.862 1.806 4.083 1.948 6.423 c 0.017 0.275 -0.081 0.545 -0.27 0.746 C 54.163 23.305 53.899 23.418 53.624 23.418 z M 37.482 21.418 h 15.037 c -0.231 -1.621 -0.761 -3.141 -1.554 -4.445 c -1.272 -2.094 -1.009 -5.142 0.602 -6.94 c 0 0 0 0 0 0 c 1.869 -2.086 3.08 -4.908 3.462 -8.032 H 34.971 c 0.382 3.125 1.593 5.946 3.462 8.032 c 1.61 1.798 1.875 4.846 0.602 6.941 C 38.243 18.277 37.713 19.797 37.482 21.418 z" style="stroke: none; stroke-width: 1; stroke-dasharray: none; stroke-linecap: butt; stroke-linejoin: miter; stroke-miterlimit: 10; fill: rgb(0,0,0); fill-rule: nonzero; opacity: 1;" transform=" matrix(1 0 0 1 0 0) " stroke-linecap="round" />
	<path d="M 45 37.047 c -0.552 0 -1 -0.448 -1 -1 V 22.418 c 0 -0.552 0.448 -1 1 -1 s 1 0.448 1 1 v 13.628 C 46 36.599 45.552 37.047 45 37.047 z" style="stroke: none; stroke-width: 1; stroke-dasharray: none; stroke-linecap: butt; stroke-linejoin: miter; stroke-miterlimit: 10; fill: rgb(0,0,0); fill-rule: nonzero; opacity: 1;" transform=" matrix(1 0 0 1 0 0) " stroke-linecap="round" />
	<path d="M 79.127 90 H 10.874 c -2.46 0 -4.461 -2.001 -4.461 -4.461 V 17.286 c 0 -2.459 2.001 -4.46 4.461 -4.46 H 25.94 c 0.552 0 1 0.448 1 1 s -0.448 1 -1 1 H 10.874 c -1.357 0 -2.461 1.104 -2.461 2.46 v 68.253 c 0 1.357 1.104 2.461 2.461 2.461 h 68.253 c 1.356 0 2.46 -1.104 2.46 -2.461 V 17.286 c 0 -1.357 -1.104 -2.46 -2.46 -2.46 H 64.061 c -0.553 0 -1 -0.448 -1 -1 s 0.447 -1 1 -1 h 15.066 c 2.459 0 4.46 2.001 4.46 4.46 v 68.253 C 83.587 87.999 81.586 90 79.127 90 z" style="stroke: none; stroke-width: 1; stroke-dasharray: none; stroke-linecap: butt; stroke-linejoin: miter; stroke-miterlimit: 10; fill: rgb(0,0,0); fill-rule: nonzero; opacity: 1;" transform=" matrix(1 0 0 1 0 0) " stroke-linecap="round" />
	<path d="M 68.854 51.943 H 21.146 c -0.552 0 -1 -0.447 -1 -1 s 0.448 -1 1 -1 h 47.707 c 0.553 0 1 0.447 1 1 S 69.406 51.943 68.854 51.943 z" style="stroke: none; stroke-width: 1; stroke-dasharray: none; stroke-linecap: butt; stroke-linejoin: miter; stroke-miterlimit: 10; fill: rgb(0,0,0); fill-rule: nonzero; opacity: 1;" transform=" matrix(1 0 0 1 0 0) " stroke-linecap="round" />
	<path d="M 54.968 68.606 H 21.146 c -0.552 0 -1 -0.447 -1 -1 s 0.448 -1 1 -1 h 33.821 c 0.553 0 1 0.447 1 1 S 55.521 68.606 54.968 68.606 z" style="stroke: none; stroke-width: 1; stroke-dasharray: none; stroke-linecap: butt; stroke-linejoin: miter; stroke-miterlimit: 10; fill: rgb(0,0,0); fill-rule: nonzero; opacity: 1;" transform=" matrix(1 0 0 1 0 0) " stroke-linecap="round" />
</g>
</svg>