<svg xmlns="http://www.w3.org/2000/svg" width="90" height="76" viewBox="4 35 87 36" fill="none">
  <g clip-path="url(#clip0_0_547)">
    <path fill-rule="evenodd" clip-rule="evenodd"
      d="M17.3727 48.7844C10.268 48.7844 4.4856 54.6649 4.4856 61.8951C4.4856 69.1209 10.268 75.0037 17.3727 75.0037H73.4036C82.3241 75.0037 89.5783 67.6204 89.5783 58.5455C89.5783 49.4705 82.3241 42.0873 73.4036 42.0873C71.7441 42.0873 70.0936 42.3482 68.5034 42.8589L67.4671 43.1941L67.1008 42.1503C63.6769 32.3555 54.5241 25.7753 44.3284 25.7753C31.8634 25.7753 21.518 35.2777 20.2628 47.8778L20.1466 49.0453L19.0031 48.9014C18.3688 48.8204 17.8506 48.7844 17.3727 48.7844Z"
      fill="#D6E3F2" />
  </g>
  <defs>
    <clipPath id="clip0_0_547">
      <rect width="90" height="75.4545" fill="white" />
    </clipPath>
  </defs>
</svg>